<?xml version="1.0" encoding="iso-8859-1"?>
<!-- Uploaded to: SVG Repo, www.svgrepo.com, Generator: SVG Repo Mixer Tools -->
<svg fill="#000000" version="1.1" id="Layer_1" xmlns="http://www.w3.org/2000/svg" xmlns:xlink="http://www.w3.org/1999/xlink" 
	 viewBox="0 0 512.003 512.003" xml:space="preserve">
<g>
	<g>
		<path d="M235.5,101.617c-24.43,1.566-46.733,11.069-64.355,25.954h75.083v30.417H145.943c-4.602,8.152-8.205,16.937-10.638,26.193
			h95.836c22.829,0,41.402-18.573,41.402-41.402C272.542,121.687,256.348,103.8,235.5,101.617z"/>
	</g>
</g>
<g>
	<g>
		<path d="M376.695,184.181c-2.433-9.256-6.036-18.042-10.638-26.193h-48.319v-30.417h23.116
			c-13.994-11.82-30.936-20.251-49.556-24.004c7.57,11.589,11.661,25.148,11.661,39.213c0,15.41-4.895,29.691-13.19,41.402H376.695z
			"/>
	</g>
</g>
<g>
	<g>
		<path d="M231.141,327.818h-95.836c2.433,9.256,6.036,18.041,10.638,26.193h100.286v30.417h-75.083v0
			c17.622,14.885,39.925,24.388,64.356,25.954c20.847-2.183,37.041-20.071,37.041-41.163
			C272.542,346.39,253.97,327.818,231.141,327.818z"/>
	</g>
</g>
<g>
	<g>
		<path d="M177.933,214.599H131.67v26.192h18.294v30.417H131.67V297.4h46.263c-8.294-11.711-13.189-25.99-13.189-41.401
			S169.639,226.309,177.933,214.599z"/>
	</g>
</g>
<g>
	<g>
		<path d="M380.33,240.791v-26.192H236.562c-22.829,0-41.401,18.572-41.401,41.401s18.572,41.401,41.401,41.401h143.767v-26.192
			H221.475v-30.417H380.33z"/>
	</g>
</g>
<g>
	<g>
		<path d="M366.057,354.011c4.602-8.152,8.205-16.937,10.638-26.193H289.77c8.295,11.711,13.19,25.992,13.19,41.402
			c0,14.065-4.092,27.624-11.661,39.213c18.618-3.753,35.562-12.184,49.556-24.004h-23.116v-30.417H366.057z"/>
	</g>
</g>
<g>
	<g>
		<rect x="240.793" width="30.417" height="69.443"/>
	</g>
</g>
<g>
	<g>
		<rect x="240.793" y="442.56" width="30.417" height="69.443"/>
	</g>
</g>
<g>
	<g>
		<polygon points="172.084,13.667 143.982,25.306 170.555,89.461 181.011,85.131 196.586,78.679 198.658,77.821 		"/>
	</g>
</g>
<g>
	<g>
		<polygon points="341.445,422.538 330.989,426.868 315.413,433.32 313.342,434.179 339.916,498.334 368.018,486.694 		"/>
	</g>
</g>
<g>
	<g>
		<rect x="84.325" y="64.812" transform="matrix(0.7071 -0.7071 0.7071 0.7071 -41.228 99.5332)" width="30.417" height="69.442"/>
	</g>
</g>
<g>
	<g>
		
			<rect x="397.256" y="377.753" transform="matrix(0.7071 -0.7071 0.7071 0.7071 -170.8549 412.4669)" width="30.417" height="69.442"/>
	</g>
</g>
<g>
	<g>
		
			<rect x="36.35" y="136.602" transform="matrix(0.3827 -0.9239 0.9239 0.3827 -126.4547 153.3948)" width="30.418" height="69.444"/>
	</g>
</g>
<g>
	<g>
		
			<rect x="445.222" y="305.937" transform="matrix(0.3827 -0.9239 0.9239 0.3827 -30.4992 635.6733)" width="30.418" height="69.444"/>
	</g>
</g>
<g>
	<g>
		<rect y="240.793" width="69.443" height="30.417"/>
	</g>
</g>
<g>
	<g>
		<rect x="442.56" y="240.793" width="69.443" height="30.417"/>
	</g>
</g>
<g>
	<g>
		
			<rect x="16.853" y="325.481" transform="matrix(0.9239 -0.3827 0.3827 0.9239 -126.4527 45.6719)" width="69.444" height="30.418"/>
	</g>
</g>
<g>
	<g>
		
			<rect x="425.692" y="156.123" transform="matrix(0.9239 -0.3827 0.3827 0.9239 -30.519 189.2383)" width="69.444" height="30.418"/>
	</g>
</g>
<g>
	<g>
		
			<rect x="64.807" y="397.254" transform="matrix(0.7071 -0.7071 0.7071 0.7071 -262.504 191.1843)" width="69.442" height="30.417"/>
	</g>
</g>
<g>
	<g>
		<rect x="377.748" y="84.316" transform="matrix(0.7071 -0.7071 0.7071 0.7071 50.435 320.8098)" width="69.442" height="30.417"/>
	</g>
</g>
<g>
	<g>
		<polygon points="196.586,433.32 181.011,426.868 170.555,422.538 143.982,486.694 172.084,498.334 198.658,434.179 		"/>
	</g>
</g>
<g>
	<g>
		<polygon points="339.916,13.667 313.342,77.821 315.413,78.679 330.989,85.131 341.445,89.461 368.018,25.306 		"/>
	</g>
</g>
</svg>